<?xml version="1.0" encoding="utf-8"?>
<!-- Generator: Adobe Illustrator 26.2.1, SVG Export Plug-In . SVG Version: 6.00 Build 0)  -->
<svg version="1.1" id="Layer_1" xmlns="http://www.w3.org/2000/svg" xmlns:xlink="http://www.w3.org/1999/xlink" x="0px" y="0px"
	 viewBox="0 0 559 897" style="enable-background:new 0 0 559 897;" xml:space="preserve">
<style type="text/css">
	.st0{fill:none;stroke:#000000;stroke-width:2;stroke-miterlimit:10;}
</style>
<path class="st0" d="M500.7,93.1h-55.3h-55.2c-5.5,0-10.6,1.1-15.1,3.2c-4.3,2-8.3,4.7-11.9,8.1c-3.4,3.4-6.4,7.1-8.7,10.9
	c-2.4,3.6-4.3,7.5-6.2,11.7L280,302.8l-69.3-176c-4.2-9.7-9.5-17.7-15.7-23.8c-6.7-6.6-15.8-10-26.9-10h-55.2H58.4H3.2l186,393.8
	v337.1h55.2h70.2h55.2v-337L553.3,98.6l2.5-5.5H500.7z"/>
</svg>
