<?xml version="1.0" encoding="utf-8"?>
<!-- Generator: Adobe Illustrator 26.2.1, SVG Export Plug-In . SVG Version: 6.00 Build 0)  -->
<svg version="1.1" id="Layer_1" xmlns="http://www.w3.org/2000/svg" xmlns:xlink="http://www.w3.org/1999/xlink" x="0px" y="0px"
	 viewBox="0 0 607 841.9" style="enable-background:new 0 0 607 841.9;" xml:space="preserve">
<style type="text/css">
	.st0{fill:none;stroke:#000000;stroke-miterlimit:10;}
</style>
<path class="st0" d="M539,34.9h-55.9h-60c-5.6,0-10.7,1-15.4,3.1c-4.5,2-8.6,4.7-12.1,8.1c-3.4,3.3-6.5,7-9.1,11.1
	c-2.6,4-4.7,8.1-6.5,12.1l-76.7,193.4L225.8,69.2c-4.4-9.9-9.9-18.1-16.4-24.5c-6.8-6.5-16-9.9-27.5-9.9h-60H66.7h-60L207.3,451
	v356.9h60h71.1h60V451L598,36.9l1-2H539z"/>
</svg>
